<svg width="61" height="55" viewBox="0 0 61 55" fill="none" xmlns="http://www.w3.org/2000/svg">
<path d="M3.66839 55.0007C2.44806 55.0007 1.53262 54.7438 0.91913 54.2299C0.306377 53.7169 0 52.9343 0 51.8838C0 51.195 0.161679 50.6199 0.485774 50.1592C0.809868 49.6985 1.27792 49.3508 1.89141 49.1175C2.50416 48.8842 3.24242 48.7676 4.10618 48.7676C4.62001 48.7676 5.10283 48.8156 5.55538 48.9115C6.00793 49.0083 6.40732 49.1515 6.75504 49.3405C7.10276 49.5295 7.3737 49.7679 7.56934 50.0544C7.76498 50.3401 7.86243 50.673 7.86243 51.0525H5.76135C5.76135 50.9299 5.72001 50.8192 5.6388 50.7195C5.55685 50.6206 5.44316 50.5372 5.29773 50.47C5.15155 50.4028 4.98544 50.3519 4.79866 50.3164C4.61189 50.2818 4.41329 50.264 4.20363 50.264C3.87068 50.264 3.58054 50.2972 3.33249 50.3644C3.08443 50.4316 2.87772 50.5305 2.71088 50.6619C2.54477 50.7934 2.42 50.9521 2.33879 51.1389C2.25685 51.3256 2.21625 51.539 2.21625 51.7782V51.9886C2.21625 52.3326 2.2849 52.6176 2.42222 52.842C2.55879 53.0672 2.76477 53.2333 3.0394 53.3411C3.31403 53.4489 3.65806 53.5035 4.07222 53.5035C4.37048 53.5035 4.64732 53.4777 4.90423 53.4245C5.16115 53.3721 5.36639 53.2916 5.52142 53.1838C5.67645 53.0761 5.75323 52.9461 5.75323 52.794V52.7586H3.92309V51.5331H7.87202V54.8951H6.64652L6.45384 54.2292C6.21981 54.3983 5.96363 54.5415 5.6831 54.6581C5.40256 54.7748 5.09618 54.8612 4.76397 54.9165C4.43028 54.9726 4.06558 55.0007 3.66839 55.0007Z" fill="white"/>
<path d="M9.11328 54.8945V48.8711H11.2756V54.8945H9.11328Z" fill="white"/>
<path d="M12.5703 54.8945V48.8711H17.7883C18.2379 48.8711 18.6129 48.9641 18.9141 49.1509C19.2146 49.3377 19.4405 49.5828 19.5926 49.8862C19.7447 50.1896 19.8207 50.5167 19.8207 50.8666C19.8207 51.2697 19.7314 51.627 19.5535 51.9393C19.3748 52.2516 19.1142 52.5011 18.7702 52.6879L19.961 54.8945H17.5181L16.6071 53.012H14.7341V54.8945H12.5703ZM14.7334 51.5155H17.0272C17.1911 51.5155 17.3284 51.4646 17.4391 51.3627C17.5498 51.2608 17.6052 51.1191 17.6052 50.9382C17.6052 50.8157 17.5786 50.7123 17.5262 50.6274C17.4738 50.5432 17.4051 50.4783 17.321 50.4347C17.2361 50.3912 17.1386 50.369 17.0272 50.369H14.7334V51.5155Z" fill="white"/>
<path d="M20.8281 54.8945V48.8711H22.9912V54.8945H20.8281Z" fill="white"/>
<path d="M26.6349 54.8951V49.5716H23.8945V48.8887H30.1461V49.5716H27.4057V54.8951H26.6349Z" fill="white"/>
<path d="M34.6987 55.0005C33.928 55.0005 33.2598 54.8824 32.6936 54.6462C32.1274 54.4099 31.6925 54.0615 31.3891 53.6001C31.0857 53.1394 30.9336 52.5702 30.9336 51.8925C30.9336 51.2096 31.0857 50.6397 31.3891 50.1812C31.6925 49.7227 32.1274 49.3758 32.6936 49.1395C33.2598 48.9033 33.928 48.7852 34.6987 48.7852C35.4813 48.7852 36.1531 48.9033 36.7164 49.1395C37.2796 49.3758 37.713 49.7235 38.0172 50.1812C38.3198 50.6397 38.4727 51.2103 38.4727 51.8925C38.4727 52.5695 38.3198 53.1387 38.0172 53.6001C37.7137 54.0615 37.2804 54.4099 36.7164 54.6462C36.1531 54.8824 35.4805 55.0005 34.6987 55.0005ZM34.7068 54.3346C35.1269 54.3346 35.5167 54.2911 35.8755 54.2032C36.235 54.1154 36.548 53.9788 36.8168 53.792C37.0855 53.6052 37.2951 53.3616 37.4472 53.0611C37.5993 52.7607 37.6754 52.3997 37.6754 51.9796V51.7869C37.6754 51.3727 37.5993 51.0169 37.4472 50.7186C37.2951 50.4211 37.0855 50.179 36.8168 49.9922C36.548 49.8054 36.235 49.6666 35.8755 49.5766C35.5167 49.4858 35.1269 49.4407 34.7068 49.4407C34.2868 49.4407 33.897 49.4858 33.5382 49.5766C33.1786 49.6674 32.8619 49.8054 32.588 49.9922C32.3134 50.179 32.1023 50.4211 31.9531 50.7186C31.804 51.0169 31.7294 51.3727 31.7294 51.7869V51.9796C31.7294 52.3997 31.804 52.7607 31.9531 53.0611C32.1023 53.3616 32.3134 53.6052 32.588 53.792C32.8619 53.9788 33.1786 54.1161 33.5382 54.2032C33.897 54.2911 34.2868 54.3346 34.7068 54.3346Z" fill="white"/>
<path d="M40.1875 54.8951V48.8887H43.19C43.9142 48.8887 44.5336 49.0016 45.0504 49.2261C45.5664 49.4512 45.9651 49.7864 46.2456 50.233C46.5254 50.6797 46.6657 51.2326 46.6657 51.8919C46.6657 52.5512 46.5254 53.1034 46.2456 53.5471C45.9651 53.9908 45.5672 54.3259 45.0504 54.5541C44.5336 54.7814 43.9135 54.8951 43.19 54.8951H40.1875ZM40.9575 54.23H43.1634C43.5436 54.23 43.8958 54.1894 44.2235 54.1074C44.5506 54.0255 44.837 53.8941 45.0858 53.7132C45.3339 53.5323 45.5258 53.3005 45.6631 53.017C45.8005 52.7343 45.8691 52.391 45.8691 51.9879V51.7952C45.8691 51.3921 45.8005 51.0496 45.6631 50.7661C45.5258 50.4833 45.3339 50.2508 45.0858 50.0699C44.837 49.889 44.5499 49.7561 44.2235 49.6712C43.8958 49.5871 43.5436 49.5442 43.1634 49.5442H40.9575V54.23Z" fill="white"/>
<path d="M47.3477 54.8951L50.421 48.8887H51.3401L54.4135 54.8951H53.5645L52.7761 53.3544H48.9416L48.1531 54.8951H47.3477ZM49.2656 52.7069H52.4527L51.4812 50.7808C51.4398 50.7107 51.3933 50.6206 51.3409 50.5092C51.2885 50.3984 51.2338 50.2832 51.1792 50.1636C51.1238 50.044 51.0714 49.9318 51.0212 49.8263C50.9718 49.7214 50.9289 49.6365 50.895 49.5723H50.8248C50.7665 49.7008 50.6979 49.8447 50.6196 50.0057C50.5406 50.1666 50.4668 50.3165 50.4003 50.4567C50.3332 50.597 50.2793 50.7048 50.2387 50.7808L49.2656 52.7069Z" fill="white"/>
<path d="M57.0071 54.8951V52.391L54.0039 48.8887H54.9585L57.3659 51.7347H57.4715L59.8967 48.8887H60.7988L57.7779 52.391V54.8951H57.0071Z" fill="white"/>
<path d="M51.245 21.9476C51.245 21.9705 51.2465 21.9934 51.2465 22.0163C51.2465 33.5132 41.8935 42.8662 30.3967 42.8662C18.8998 42.8662 9.54683 33.5132 9.54683 22.0163C9.54683 10.543 18.8629 1.20557 30.328 1.16792V0C18.2191 0.0376511 8.37891 9.89855 8.37891 22.0156C8.37891 34.1562 18.256 44.0333 30.3967 44.0333C42.5373 44.0333 52.4144 34.1562 52.4144 22.0156C52.4144 21.9927 52.4129 21.9698 52.4129 21.9469H51.245V21.9476Z" fill="url(#paint0_linear_132_3255)"/>
<path d="M12.7783 19.8185C13.8628 11.0834 21.3111 4.29442 30.3274 4.25972V3.0918C20.6666 3.12649 12.692 10.4367 11.6016 19.8177H12.7783V19.8185Z" fill="url(#paint1_linear_132_3255)"/>
<path d="M46.5136 29.4352C43.6971 35.5288 37.5393 39.7745 30.3967 39.7745C21.8041 39.7745 14.6187 33.6396 12.9872 25.5195H11.8008C13.4493 34.2871 21.1582 40.9425 30.3967 40.9425C38.1979 40.9425 44.8953 36.1903 47.7885 29.4352H46.5136Z" fill="url(#paint2_linear_132_3255)"/>
<path d="M40.9383 21.9475C40.9383 21.9704 40.942 21.9932 40.942 22.0161C40.942 27.8306 36.2113 32.5614 30.3968 32.5614C24.5823 32.5614 19.8515 27.8306 19.8515 22.0161C19.8515 16.2245 24.5453 11.5122 30.3281 11.4746V10.3066C23.9016 10.3443 18.6836 15.5807 18.6836 22.0161C18.6836 28.4751 23.9378 33.7293 30.3968 33.7293C36.8558 33.7293 42.1099 28.4744 42.1099 22.0161C42.1099 21.9932 42.1062 21.9704 42.1062 21.9475H40.9383Z" fill="#FEC32F"/>
<path d="M41.9669 21.9492H28.5195V23.1171H41.9669V21.9492Z" fill="url(#paint3_linear_132_3255)"/>
<path d="M44.5102 25.6584H44.0716H25.2232V26.8263H43.7033C41.7306 32.2688 36.5126 36.169 30.3977 36.169C22.5943 36.169 16.246 29.8207 16.246 22.0173C16.246 14.2368 22.5574 7.90479 30.329 7.86714V6.69922C21.9136 6.73687 15.0781 13.5931 15.0781 22.0173C15.0781 30.4644 21.9506 37.3369 30.3977 37.3369C37.5905 37.3369 43.6383 32.3529 45.2765 25.6584H44.5102Z" fill="url(#paint4_linear_132_3255)"/>
<path d="M46.8416 29.4453H27.5547V30.6132H46.8416V29.4453Z" fill="url(#paint5_linear_132_3255)"/>
<defs>
<linearGradient id="paint0_linear_132_3255" x1="48.7647" y1="2.76324" x2="25.9569" y2="26.6703" gradientUnits="userSpaceOnUse">
<stop offset="0.3727" stop-color="#000189"/>
<stop offset="0.9139" stop-color="#FEC32F"/>
</linearGradient>
<linearGradient id="paint1_linear_132_3255" x1="16.2823" y1="24.7733" x2="20.4042" y2="12.9572" gradientUnits="userSpaceOnUse">
<stop offset="0.3727" stop-color="#000189"/>
<stop offset="0.9139" stop-color="#FEC32F"/>
</linearGradient>
<linearGradient id="paint2_linear_132_3255" x1="14.6974" y1="20.4531" x2="34.4139" y2="33.9867" gradientUnits="userSpaceOnUse">
<stop offset="0.3727" stop-color="#000189"/>
<stop offset="0.9139" stop-color="#FEC32F"/>
</linearGradient>
<linearGradient id="paint3_linear_132_3255" x1="24.0605" y1="22.4199" x2="36.8126" y2="22.5487" gradientUnits="userSpaceOnUse">
<stop offset="0.3727" stop-color="#000189"/>
<stop offset="0.9139" stop-color="#FEC32F"/>
</linearGradient>
<linearGradient id="paint4_linear_132_3255" x1="36.9206" y1="9.76927" x2="30.2225" y2="22.3411" gradientUnits="userSpaceOnUse">
<stop offset="0.1893" stop-color="#000189"/>
<stop offset="0.9139" stop-color="#FEC32F"/>
</linearGradient>
<linearGradient id="paint5_linear_132_3255" x1="23.9506" y1="30.2704" x2="35.2859" y2="30.0643" gradientUnits="userSpaceOnUse">
<stop offset="0.3727" stop-color="#000189"/>
<stop offset="0.9139" stop-color="#FEC32F"/>
</linearGradient>
</defs>
</svg>